<?xml version="1.0" encoding="UTF-8"?>
<svg id="Layer_1" data-name="Layer 1" xmlns="http://www.w3.org/2000/svg" xmlns:xlink="http://www.w3.org/1999/xlink" viewBox="0 0 1434.5 569.95">
  <defs>
    <style>
      .cls-1 {
        fill: url(#linear-gradient);
      }

      .cls-1, .cls-2, .cls-3, .cls-4, .cls-5, .cls-6, .cls-7, .cls-8, .cls-9, .cls-10 {
        stroke-width: 0px;
      }

      .cls-2 {
        fill: #7f1c40;
      }

      .cls-3 {
        fill: #292e55;
      }

      .cls-4 {
        fill: url(#linear-gradient-4);
      }

      .cls-5 {
        fill: url(#linear-gradient-2);
      }

      .cls-6 {
        fill: url(#linear-gradient-3);
      }

      .cls-7 {
        fill: url(#linear-gradient-8);
      }

      .cls-8 {
        fill: url(#linear-gradient-7);
      }

      .cls-9 {
        fill: url(#linear-gradient-5);
      }

      .cls-10 {
        fill: url(#linear-gradient-6);
      }
    </style>
    <linearGradient id="linear-gradient" x1="140.58" y1="184.97" x2="255.8" y2="184.97" gradientUnits="userSpaceOnUse">
      <stop offset="0" stop-color="#c4044d"/>
      <stop offset="1" stop-color="#7f1c40"/>
    </linearGradient>
    <linearGradient id="linear-gradient-2" x1="0" y1="210.67" x2="259.33" y2="210.67" xlink:href="#linear-gradient"/>
    <linearGradient id="linear-gradient-3" x1="252.47" y1="222.85" x2="318.42" y2="222.85" xlink:href="#linear-gradient"/>
    <linearGradient id="linear-gradient-4" x1="219.91" y1="292.02" x2="432.03" y2="292.02" xlink:href="#linear-gradient"/>
    <linearGradient id="linear-gradient-5" x1="0" y1="284.98" x2="432.03" y2="284.98" xlink:href="#linear-gradient"/>
    <linearGradient id="linear-gradient-6" x1="0" y1="284.98" x2="432.03" y2="284.98" xlink:href="#linear-gradient"/>
    <linearGradient id="linear-gradient-7" x1="0" y1="284.98" x2="432.03" y2="284.98" xlink:href="#linear-gradient"/>
    <linearGradient id="linear-gradient-8" x1="0" y1="284.98" x2="432.03" y2="284.98" xlink:href="#linear-gradient"/>
  </defs>
  <g>
    <path class="cls-3" d="M583.54,23.07l1.86,46.83h-3.53c-5.48-16.53-10.33-27.82-14.56-33.85-4.23-6.03-10.33-9.06-18.29-9.06h-2.22v122.77h15.85v3.92h-68.11v-3.92h15.87V26.98h-2.42c-7.96,0-14.12,3.15-18.48,9.42-4.35,6.29-9.15,17.46-14.38,33.49h-3.53l1.86-46.83h110.09Z"/>
    <path class="cls-3" d="M594.18,13.74h44.95v68.29c2-5.72,5.05-10.31,9.15-13.81,4.12-3.48,10.33-5.21,18.66-5.21,19.28,0,28.92,10.39,28.92,31.16v56.16h10.46v3.35h-52.8v-3.35h7.65v-60.64c0-7.47-.51-12.28-1.49-14.47-1-2.17-2.81-3.26-5.41-3.26-3.99,0-7.49,2.61-10.55,7.83-3.04,5.23-4.57,11.57-4.57,19.04v51.49h8.04v3.35h-52.98v-3.35h10.26V17.11h-10.26v-3.37Z"/>
    <path class="cls-3" d="M722.07,143.14c-8.02-8.27-12.04-19.79-12.04-34.53s4.52-26.02,13.54-33.85c9.02-7.83,20.48-11.75,34.42-11.75,28.24,0,41.8,14.18,40.67,42.53h-52.6v7.29c0,12.19,1.55,21.39,4.66,27.6,3.1,6.23,8.51,9.33,16.23,9.33,14.41,0,23.87-7.71,28.35-23.14l3.35.56c-2.35,8.96-6.61,15.92-12.77,20.9-6.16,4.97-15.4,7.47-27.71,7.47-16.03,0-28.08-4.14-36.09-12.41ZM746.23,101.82h19.22v-9.15c0-10.08-.6-16.94-1.79-20.63-1.18-3.66-3.53-5.5-7.09-5.5s-6.16,1.97-7.83,5.89c-1.68,3.92-2.51,10.66-2.51,20.24v9.15Z"/>
    <path class="cls-3" d="M557.05,358.9h49.81v3.55h-10.26v123.52h10.26v3.53h-56.9v-3.53h10.26v-116.61h-.75l-27.99,120.14h-23.32l-32.83-120.71h-.75v117.17h10.26v3.53h-25.38v-3.53h10.26v-123.52h-10.26v-3.55h50.38l24.82,96.09,22.39-96.09Z"/>
    <path class="cls-3" d="M612.64,400.7h45.71v85.45h10.44v3.35h-55.41v-3.35h10.26v-82.1h-11.01v-3.35ZM640.8,387.82c-6.58,0-11.28-1.68-14.08-5.03-2.79-3.35-4.19-7.52-4.19-12.5s1.51-9.07,4.57-12.32c3.04-3.22,7.67-4.85,13.9-4.85s10.93,1.46,14.18,4.37c3.22,2.93,4.85,7.11,4.85,12.52s-1.55,9.73-4.66,12.95c-3.12,3.24-7.96,4.85-14.56,4.85Z"/>
    <path class="cls-3" d="M672.91,400.7h44.95v17.16c2-5.72,5.05-10.31,9.15-13.81,4.12-3.48,10.33-5.21,18.66-5.21,19.28,0,28.92,10.39,28.92,31.16v56.16h10.46v3.35h-52.8v-3.35h7.65v-60.64c0-7.47-.51-12.28-1.49-14.47-1-2.17-2.81-3.26-5.41-3.26-3.99,0-7.49,2.61-10.55,7.83-3.04,5.23-4.57,11.57-4.57,19.04v51.49h8.04v3.35h-52.98v-3.35h10.26v-82.1h-10.26v-3.35Z"/>
    <path class="cls-3" d="M786.71,400.7h45.71v85.45h10.44v3.35h-55.41v-3.35h10.26v-82.1h-11.01v-3.35ZM814.88,387.82c-6.58,0-11.28-1.68-14.08-5.03-2.79-3.35-4.19-7.52-4.19-12.5s1.51-9.07,4.57-12.32c3.04-3.22,7.67-4.85,13.9-4.85s10.93,1.46,14.18,4.37c3.22,2.93,4.85,7.11,4.85,12.52s-1.55,9.73-4.66,12.95c-3.12,3.24-7.96,4.85-14.56,4.85Z"/>
    <path class="cls-3" d="M850.88,491.38v-33.4h2.24c3.22,10.82,7.58,18.4,13.06,22.76,5.47,4.35,12.32,6.52,20.52,6.52,12.7,0,19.04-4.03,19.04-12.12,0-3.48-1.57-6.1-4.66-7.83-4.86-2.73-11.08-4.86-18.66-6.34-8.47-2.24-15.56-5.23-21.28-8.96-6.83-4.48-10.26-11.57-10.26-21.26s2.99-17.46,8.96-23.23c5.96-5.79,13.92-8.67,23.87-8.67,6.1,0,12.39,1.42,18.86,4.28,2.35,1,4.15,1.49,5.41,1.49s2.3-.44,3.17-1.31c.86-.86,1.91-2.48,3.17-4.85h2.04v28.55h-2.22c-6.36-16.18-16.18-24.25-29.48-24.25-5.85,0-10.2,1.02-13.06,3.08-2.86,2.04-4.3,4.63-4.3,7.74,0,1.86.44,3.32,1.31,4.37.87,1.06,1.55,1.84,2.06,2.33.49.51,1.29,1.04,2.42,1.59,1.11.56,2.04,1,2.79,1.31.75.31,1.89.71,3.46,1.2,1.55.51,2.7.82,3.44.95,8.45,2.11,14.56,3.94,18.29,5.5,3.74,1.55,7.27,3.44,10.62,5.68,6.85,4.74,10.28,12.35,10.28,22.85s-3.12,18.48-9.33,23.89c-6.23,5.41-14.74,8.13-25.56,8.13-7.73,0-15.18-1.8-22.39-5.41-1.49-1-2.68-1.49-3.55-1.49-2.73,0-5.41,2.3-8.02,6.91h-2.24Z"/>
    <path class="cls-3" d="M935.04,462.83v-58.78h-10.28v-3.35h10.28v-24.07l34.69-8.58v32.65h24.25v3.35h-24.25v62.88c0,5.85.6,10.15,1.79,12.88,1.17,2.73,3.63,4.1,7.36,4.1s7-1.86,9.8-5.59c2.79-3.74,4.63-8.84,5.5-15.31l3.17.38c-1,8.58-3.74,15.38-8.22,20.42-4.48,5.03-11.88,7.56-22.19,7.56s-18.22-2.06-23.7-6.16c-5.47-4.12-8.2-11.57-8.2-22.39Z"/>
    <path class="cls-3" d="M1012.19,478.98c-8.02-8.27-12.04-19.79-12.04-34.53s4.52-26.02,13.54-33.85c9.02-7.83,20.48-11.75,34.42-11.75,28.24,0,41.8,14.18,40.67,42.53h-52.6v7.29c0,12.19,1.55,21.39,4.66,27.6,3.1,6.23,8.51,9.33,16.23,9.33,14.41,0,23.87-7.71,28.35-23.14l3.35.56c-2.35,8.96-6.61,15.92-12.77,20.9-6.16,4.97-15.4,7.47-27.71,7.47-16.03,0-28.08-4.14-36.09-12.41ZM1036.35,437.65h19.22v-9.15c0-10.08-.6-16.94-1.79-20.63-1.18-3.66-3.53-5.5-7.09-5.5s-6.16,1.97-7.83,5.89c-1.68,3.92-2.51,10.66-2.51,20.24v9.15Z"/>
    <path class="cls-3" d="M1157.81,405.93c-4.61,0-8.65,2.99-12.13,8.95-3.48,5.98-5.23,13.06-5.23,21.28v50h13.26v3.35h-58.21v-3.35h10.26v-82.1h-10.26v-3.35h44.95v17.91c1.62-6.34,4.74-11.22,9.33-14.65,4.61-3.41,9.84-5.12,15.69-5.12s10.6,1.64,14.27,4.94c3.66,3.3,5.5,7.96,5.5,13.99s-1.37,10.66-4.1,13.9c-2.73,3.22-6.94,4.85-12.59,4.85s-9.84-1.86-12.5-5.59c-2.68-3.74-3.02-8.89-1.04-15.49h6.72c3.1-6.34,1.8-9.51-3.92-9.51Z"/>
    <path class="cls-3" d="M1189.89,491.38v-33.4h2.24c3.22,10.82,7.58,18.4,13.06,22.76,5.47,4.35,12.32,6.52,20.52,6.52,12.7,0,19.04-4.03,19.04-12.12,0-3.48-1.57-6.1-4.66-7.83-4.86-2.73-11.08-4.86-18.66-6.34-8.47-2.24-15.56-5.23-21.28-8.96-6.83-4.48-10.26-11.57-10.26-21.26s2.99-17.46,8.96-23.23c5.96-5.79,13.92-8.67,23.87-8.67,6.1,0,12.39,1.42,18.86,4.28,2.35,1,4.15,1.49,5.41,1.49s2.3-.44,3.17-1.31c.86-.86,1.91-2.48,3.17-4.85h2.04v28.55h-2.22c-6.36-16.18-16.18-24.25-29.48-24.25-5.85,0-10.2,1.02-13.06,3.08-2.86,2.04-4.3,4.63-4.3,7.74,0,1.86.44,3.32,1.31,4.37.87,1.06,1.55,1.84,2.06,2.33.49.51,1.29,1.04,2.42,1.59,1.11.56,2.04,1,2.79,1.31s1.89.71,3.46,1.2c1.55.51,2.7.82,3.44.95,8.45,2.11,14.56,3.94,18.29,5.5,3.74,1.55,7.27,3.44,10.62,5.68,6.85,4.74,10.28,12.35,10.28,22.85s-3.12,18.48-9.33,23.89c-6.23,5.41-14.74,8.13-25.56,8.13-7.73,0-15.18-1.8-22.39-5.41-1.49-1-2.68-1.49-3.55-1.49-2.73,0-5.41,2.3-8.02,6.91h-2.24Z"/>
  </g>
  <g>
    <g>
      <path class="cls-2" d="M557.05,190.99h49.81v3.55h-10.26v123.52h10.26v3.53h-56.9v-3.53h10.26v-116.61h-.75l-27.99,120.14h-23.32l-32.83-120.71h-.75v117.17h10.26v3.53h-25.38v-3.53h10.26v-123.52h-10.26v-3.55h50.38l24.82,96.09,22.39-96.09Z"/>
      <path class="cls-2" d="M626.36,311.06c-8.02-8.27-12.04-19.79-12.04-34.53s4.52-26.02,13.54-33.85c9.02-7.83,20.48-11.75,34.42-11.75,28.24,0,41.8,14.18,40.67,42.53h-52.6v7.29c0,12.19,1.55,21.39,4.66,27.6,3.1,6.23,8.51,9.33,16.23,9.33,14.41,0,23.87-7.71,28.35-23.14l3.35.56c-2.35,8.96-6.61,15.92-12.77,20.9-6.16,4.97-15.4,7.47-27.71,7.47-16.03,0-28.08-4.14-36.09-12.41ZM650.52,269.73h19.22v-9.15c0-10.08-.6-16.94-1.79-20.63-1.18-3.66-3.53-5.5-7.09-5.5s-6.16,1.97-7.83,5.89c-1.68,3.92-2.51,10.66-2.51,20.24v9.15Z"/>
      <path class="cls-2" d="M712.08,323.47v-33.4h2.24c3.22,10.82,7.58,18.4,13.06,22.76,5.47,4.35,12.32,6.52,20.52,6.52,12.7,0,19.04-4.03,19.04-12.12,0-3.48-1.57-6.1-4.66-7.83-4.86-2.73-11.08-4.86-18.66-6.34-8.47-2.24-15.56-5.23-21.28-8.96-6.83-4.48-10.26-11.57-10.26-21.26s2.99-17.46,8.96-23.23c5.96-5.79,13.92-8.67,23.87-8.67,6.1,0,12.39,1.42,18.86,4.28,2.35,1,4.15,1.49,5.41,1.49s2.3-.44,3.17-1.31c.86-.86,1.91-2.48,3.17-4.85h2.04v28.55h-2.22c-6.36-16.18-16.18-24.25-29.48-24.25-5.85,0-10.2,1.02-13.06,3.08-2.86,2.04-4.3,4.63-4.3,7.74,0,1.86.44,3.32,1.31,4.37.87,1.06,1.55,1.84,2.06,2.33.49.51,1.29,1.04,2.42,1.59,1.11.56,2.04,1,2.79,1.31.75.31,1.89.71,3.46,1.2,1.55.51,2.7.82,3.44.95,8.45,2.11,14.56,3.94,18.29,5.5,3.74,1.55,7.27,3.44,10.62,5.68,6.85,4.74,10.28,12.35,10.28,22.85s-3.12,18.48-9.33,23.89c-6.23,5.41-14.74,8.13-25.56,8.13-7.73,0-15.18-1.8-22.39-5.41-1.49-1-2.68-1.49-3.55-1.49-2.73,0-5.41,2.3-8.02,6.91h-2.24Z"/>
      <path class="cls-2" d="M793.05,323.47v-33.4h2.24c3.22,10.82,7.58,18.4,13.06,22.76,5.47,4.35,12.32,6.52,20.52,6.52,12.7,0,19.04-4.03,19.04-12.12,0-3.48-1.57-6.1-4.66-7.83-4.86-2.73-11.08-4.86-18.66-6.34-8.47-2.24-15.56-5.23-21.28-8.96-6.83-4.48-10.26-11.57-10.26-21.26s2.99-17.46,8.96-23.23c5.96-5.79,13.92-8.67,23.87-8.67,6.1,0,12.39,1.42,18.86,4.28,2.35,1,4.15,1.49,5.41,1.49s2.3-.44,3.17-1.31c.86-.86,1.91-2.48,3.17-4.85h2.04v28.55h-2.22c-6.36-16.18-16.18-24.25-29.48-24.25-5.85,0-10.2,1.02-13.06,3.08-2.86,2.04-4.3,4.63-4.3,7.74,0,1.86.44,3.32,1.31,4.37.87,1.06,1.55,1.84,2.06,2.33.49.51,1.29,1.04,2.42,1.59,1.11.56,2.04,1,2.79,1.31.75.31,1.89.71,3.46,1.2,1.55.51,2.7.82,3.44.95,8.45,2.11,14.56,3.94,18.29,5.5,3.74,1.55,7.27,3.44,10.62,5.68,6.85,4.74,10.28,12.35,10.28,22.85s-3.12,18.48-9.33,23.89c-6.23,5.41-14.74,8.13-25.56,8.13-7.73,0-15.18-1.8-22.39-5.41-1.49-1-2.68-1.49-3.55-1.49-2.73,0-5.41,2.3-8.02,6.91h-2.24Z"/>
      <path class="cls-2" d="M882.7,311.06c-8.02-8.27-12.03-19.79-12.03-34.53s4.5-26.02,13.52-33.85c9.02-7.83,20.5-11.75,34.44-11.75,28.22,0,41.78,14.18,40.67,42.53h-52.62v7.29c0,12.19,1.55,21.39,4.66,27.6,3.12,6.23,8.53,9.33,16.23,9.33,14.43,0,23.89-7.71,28.37-23.14l3.35.56c-2.37,8.96-6.63,15.92-12.79,20.9-6.16,4.97-15.38,7.47-27.69,7.47-16.05,0-28.08-4.14-36.11-12.41ZM906.86,269.73h19.22v-9.15c0-10.08-.58-16.94-1.77-20.63-1.18-3.66-3.55-5.5-7.09-5.5s-6.16,1.97-7.83,5.89c-1.69,3.92-2.53,10.66-2.53,20.24v9.15Z"/>
      <path class="cls-2" d="M966.38,232.78h44.97v17.16c1.99-5.72,5.03-10.31,9.15-13.81,4.1-3.48,10.31-5.21,18.66-5.21,19.28,0,28.92,10.39,28.92,31.16v56.16h10.44v3.35h-52.8v-3.35h7.65v-60.64c0-7.47-.49-12.28-1.49-14.47-.98-2.17-2.79-3.26-5.41-3.26-3.97,0-7.49,2.61-10.53,7.83-3.06,5.23-4.57,11.57-4.57,19.04v51.49h8.02v3.35h-52.98v-3.35h10.26v-82.1h-10.26v-3.35Z"/>
      <path class="cls-2" d="M1155.75,223.09l5.23-3.19c.75-3.84-.75-5.78-4.48-5.78-5.34,0-8.02,4.1-8.02,12.32,0,3.22.44,6.96,1.31,11.19,9.44,6.34,14.18,14.47,14.18,24.36s-3.43,17.56-10.26,23.03c-6.85,5.48-16.11,8.22-27.8,8.22-4.85,0-9.89-.49-15.1-1.49-5.48,3.48-8.22,6.09-8.22,7.83s3.97,2.61,11.93,2.61h19.04c28.22,0,42.34,10.15,42.34,30.41,0,10.95-4.26,19.62-12.77,26.04-8.53,6.4-21.81,9.6-39.83,9.6-30.74,0-46.1-6.65-46.1-19.95,0-7.22,4.79-12.21,14.38-14.94l11.19,5.05c-.98,3.61-1.49,7.01-1.49,10.26,0,10.7,7.96,16.05,23.89,16.05,9.71,0,17.16-1.8,22.39-5.41,5.23-3.61,7.83-8.09,7.83-13.45s-1.59-8.91-4.76-10.71c-3.17-1.8-9.49-2.71-18.95-2.71h-18.09c-10.08,0-17.29-1.68-21.65-5.03-4.35-3.37-6.52-7.51-6.52-12.41s1.55-9.02,4.66-12.32c3.1-3.3,8.64-7.38,16.6-12.23-14.43-4.1-21.65-13.56-21.65-28.35,0-9.33,3.37-16.85,10.08-22.57,6.72-5.72,16.8-8.58,30.23-8.58,8.09,0,15,1.55,20.72,4.66-.75-3.37-1.13-6.41-1.13-9.15,0-6.96,1.88-12.01,5.61-15.12,3.72-3.1,7.89-4.66,12.5-4.66s8.29,1.22,11.1,3.64c2.81,2.42,4.19,5.76,4.19,9.98s-1.11,7.36-3.35,9.42c-2.24,2.06-4.94,3.08-8.11,3.08s-5.79-.84-7.83-2.51c-2.06-1.68-3.15-4.08-3.28-7.18ZM1116.21,257.96v10.08c0,8.34.71,13.99,2.13,16.98,1.44,2.99,3.61,4.48,6.54,4.48s5.03-1.46,6.34-4.39c1.31-2.92,1.95-8.91,1.95-18v-9.15c0-9.69-.62-16.07-1.86-19.11-1.24-3.04-3.33-4.57-6.25-4.57s-5.14,1.59-6.63,4.76c-1.49,3.17-2.22,9.49-2.22,18.93Z"/>
      <path class="cls-2" d="M1185.7,311.06c-8.02-8.27-12.04-19.79-12.04-34.53s4.52-26.02,13.54-33.85c9.02-7.83,20.48-11.75,34.42-11.75,28.24,0,41.8,14.18,40.67,42.53h-52.6v7.29c0,12.19,1.55,21.39,4.66,27.6,3.1,6.23,8.51,9.33,16.23,9.33,14.41,0,23.87-7.71,28.35-23.14l3.35.56c-2.35,8.96-6.61,15.92-12.77,20.9-6.16,4.97-15.4,7.47-27.71,7.47-16.03,0-28.08-4.14-36.09-12.41ZM1209.86,269.73h19.22v-9.15c0-10.08-.6-16.94-1.79-20.63-1.18-3.66-3.53-5.5-7.09-5.5s-6.16,1.97-7.83,5.89c-1.68,3.92-2.51,10.66-2.51,20.24v9.15Z"/>
      <path class="cls-2" d="M1331.32,238.01c-4.59,0-8.64,2.99-12.12,8.95-3.48,5.98-5.23,13.06-5.23,21.28v50h13.25v3.35h-58.21v-3.35h10.26v-82.1h-10.26v-3.35h44.97v17.91c1.62-6.34,4.72-11.22,9.33-14.65,4.59-3.41,9.82-5.12,15.67-5.12s10.6,1.64,14.28,4.94c3.66,3.3,5.5,7.96,5.5,13.99s-1.38,10.66-4.12,13.9c-2.73,3.22-6.92,4.85-12.59,4.85s-9.82-1.86-12.5-5.59c-2.68-3.74-3.02-8.89-1.02-15.49h6.71c3.12-6.34,1.8-9.51-3.92-9.51Z"/>
      <path class="cls-2" d="M1363.42,323.47v-33.4h2.24c3.22,10.82,7.58,18.4,13.05,22.76,5.48,4.35,12.32,6.52,20.53,6.52,12.68,0,19.02-4.03,19.02-12.12,0-3.48-1.55-6.1-4.66-7.83-4.85-2.73-11.06-4.86-18.66-6.34-8.45-2.24-15.54-5.23-21.26-8.96-6.85-4.48-10.26-11.57-10.26-21.26s2.99-17.46,8.95-23.23c5.98-5.79,13.94-8.67,23.89-8.67,6.09,0,12.37,1.42,18.84,4.28,2.37,1,4.17,1.49,5.41,1.49s2.3-.44,3.17-1.31c.87-.86,1.93-2.48,3.17-4.85h2.06v28.55h-2.24c-6.34-16.18-16.16-24.25-29.48-24.25-5.85,0-10.2,1.02-13.06,3.08-2.86,2.04-4.28,4.63-4.28,7.74,0,1.86.44,3.32,1.29,4.37.87,1.06,1.57,1.84,2.06,2.33.49.51,1.31,1.04,2.42,1.59,1.13.56,2.06,1,2.81,1.31.75.31,1.89.71,3.44,1.2,1.57.51,2.71.82,3.46.95,8.45,2.11,14.54,3.94,18.27,5.5,3.74,1.55,7.29,3.44,10.64,5.68,6.83,4.74,10.26,12.35,10.26,22.85s-3.12,18.48-9.33,23.89c-6.21,5.41-14.74,8.13-25.56,8.13-7.71,0-15.18-1.8-22.39-5.41-1.48-1-2.66-1.49-3.53-1.49-2.73,0-5.41,2.3-8.02,6.91h-2.24Z"/>
    </g>
    <g>
      <g>
        <path class="cls-1" d="M211.57,84.62c8.35-5.63,16.27-11.27,23.79-16.9l1.88,39.44c0,.63-.21,1.04-.83,1.04-16.69,2.3-80.54,39.85-76.58,98.7,3.55,52.37,44.65,60.93,54.88,62.39-9.39-2.09-44.65-12.52-36.93-62.6,8.76-57.38,64.06-59.68,64.06-59.68l13.98,153.78c-82.63,12.94-110.17-65.31-113.09-76.79-6.26-24.2-2.92-91.81,68.86-139.38Z"/>
        <path class="cls-5" d="M199.88,419.93c-52.58,9.6-65.52-32.97-65.52-32.97,0,0,25.46,5.42,35.89-22.12,10.22-27.75-7.51-47.16-25.46-48.82-10.22-1.04-54.67,5.84-39.23,64.27,2.5,9.6,6.47,17.94,11.48,25.04C34.21,364.22-11.49,276.58,2.49,183.52,19.19,74.39,118.09-5.73,227.43.32c.21,10.64.63,17.32.63,17.32,0,0-82.21,63.43-98.69,89.1-53,80.96-3.76,151.28,36.1,184.24,39.65,32.76,92.64,23.37,92.64,23.37,5.63,51.96-7.09,96.4-58.21,105.58Z"/>
        <path class="cls-6" d="M266.86,299.54l-14.4-152.95c20.45-3.76,66.98,16.9,65.93,66.77-1.67,77.83-51.54,86.18-51.54,86.18Z"/>
        <path class="cls-4" d="M431.7,239.23c-5.84,117.89-50.7,221.38-147.73,330.72,22.74-92.23-5.84-123.52-64.06-137.09,6.26-2.5,12.1-6.05,17.53-10.22,46.53-36.51,32.34-109.34,32.34-109.34,57.17-12.1,82.84-57.8,86.59-93.69,3.76-35.89-2.29-69.07-34.85-94.73-32.55-25.46-71.15-20.03-71.15-20.03l-2.29-47.16c18.36-15.02,33.38-29.84,45.49-43.61,86.59,32.97,143.35,119.14,138.13,225.14Z"/>
      </g>
      <g>
        <path class="cls-9" d="M211.57,84.62c8.35-5.63,16.27-11.27,23.79-16.9l1.88,39.44c0,.63-.21,1.04-.83,1.04-16.69,2.3-80.54,39.85-76.58,98.7,3.55,52.37,44.65,60.93,54.88,62.39-9.39-2.09-44.65-12.52-36.93-62.6,8.76-57.38,64.06-59.68,64.06-59.68l13.98,153.78c-82.63,12.94-110.17-65.31-113.09-76.79-6.26-24.2-2.92-91.81,68.86-139.38Z"/>
        <path class="cls-10" d="M199.88,419.93c-52.58,9.6-65.52-32.97-65.52-32.97,0,0,25.46,5.42,35.89-22.12,10.22-27.75-7.51-47.16-25.46-48.82-10.22-1.04-54.67,5.84-39.23,64.27,2.5,9.6,6.47,17.94,11.48,25.04C34.21,364.22-11.49,276.58,2.49,183.52,19.19,74.39,118.09-5.73,227.43.32c.21,10.64.63,17.32.63,17.32,0,0-82.21,63.43-98.69,89.1-53,80.96-3.76,151.28,36.1,184.24,39.65,32.76,92.64,23.37,92.64,23.37,5.63,51.96-7.09,96.4-58.21,105.58Z"/>
        <path class="cls-8" d="M266.86,299.54l-14.4-152.95c20.45-3.76,66.98,16.9,65.93,66.77-1.67,77.83-51.54,86.18-51.54,86.18Z"/>
        <path class="cls-7" d="M431.7,239.23c-5.84,117.89-50.7,221.38-147.73,330.72,22.74-92.23-5.84-123.52-64.06-137.09,6.26-2.5,12.1-6.05,17.53-10.22,46.53-36.51,32.34-109.34,32.34-109.34,57.17-12.1,82.84-57.8,86.59-93.69,3.76-35.89-2.29-69.07-34.85-94.73-32.55-25.46-71.15-20.03-71.15-20.03l-2.29-47.16c18.36-15.02,33.38-29.84,45.49-43.61,86.59,32.97,143.35,119.14,138.13,225.14Z"/>
      </g>
    </g>
  </g>
</svg>